<svg xmlns="http://www.w3.org/2000/svg" width="813.968" height="344.38" viewBox="0 0 813.968 344.38"><path d="M171.493 150.19h28.854V.213h-28.854v56.586H121.43V.212H92.477v149.98h28.955V84.43h50.063M222.453 150.19h81.872v-28.037h-53.528V82.696h53.528V55.27h-53.528V28.15h53.528V.212h-81.872M405.774.213h-28.952L318.986 150.19h29.67l12.2-30.892h61.198l11.734 30.893h29.67L405.773.214zm-34.42 91.25l20.123-51.487 20.004 51.488h-40.125zM518.387 150.19L572.423.213H543.11l-38.284 106.545L467.09.212h-29.35l53.12 149.98M587.874 150.19h81.872v-28.037H616.22V82.696h53.526V55.27H616.22V28.15h53.526V.212h-81.872M785.42.213v98.694L721.25.213h-27.39v149.98h28.55v-98.39l64.094 98.39h27.464V.212"/><path d="M91.955 284.05c0 10.05-.698 16.86-2.09 20.424-1.394 3.566-3.91 6.504-7.545 8.813-3.636 2.31-7.97 3.463-13 3.463-4.758 0-8.82-1.035-12.183-3.105-3.365-2.07-5.778-4.84-7.24-8.303-1.463-3.465-2.19-9.375-2.19-17.727V60.263H69.93L34.936 0 0 60.263h19.056v219.782c0 17.88 1.733 30.572 5.2 38.082 3.466 7.51 9.226 13.764 17.282 18.76 8.054 4.996 17.52 7.494 28.394 7.494 8.293 0 15.564-1.306 21.82-3.925 6.252-2.617 11.775-6.643 16.567-12.082 4.79-5.438 8.037-11.078 9.736-16.924 1.698-5.847 2.548-16.315 2.548-31.405V190.63h-28.65v93.42zM212.45 195.166c-7.24-3.023-19.05-4.537-35.43-4.537h-30.28v149.98h28.547v-63.52c14.545 0 24.572-.784 30.077-2.347 9.38-2.72 16.806-7.545 22.278-14.48 5.47-6.93 8.207-15.632 8.207-26.1 0-9.448-2.09-17.554-6.27-24.317-4.18-6.76-9.89-11.655-17.13-14.68m-6.627 47.492c-1.597 2.354-3.79 4.04-6.576 5.063-2.79 1.022-7.75 1.534-14.886 1.534h-9.073v-30.79h8.056c8.834 0 14.884.99 18.147 2.966 4.486 2.662 6.73 6.89 6.73 12.688 0 3.34-.802 6.186-2.397 8.54M393.522 247.216H343.46v-56.588h-28.956v149.98h28.956v-65.76h50.062v65.76h28.853V190.63h-28.853M448.834 340.61h81.872v-28.04H477.18v-39.457h53.526v-27.428H477.18v-27.12h53.526V190.63h-81.872M641.978 258.888c4.722-6.625 7.085-14.867 7.085-24.723 0-9.38-2.142-17.504-6.417-24.367-4.277-6.865-9.93-11.777-16.957-14.734s-18.826-4.436-35.39-4.436h-30.245v149.98h28.548v-63.52h2.61l33.726 63.52h31.21l-35.53-66.68c9.512-3.4 16.63-8.41 21.358-15.04M616.3 245.673c-3.42 2.39-9.675 3.58-18.755 3.58h-8.942v-30.79h7.827c7.59 0 12.808.53 15.65 1.587 2.846 1.06 5.115 2.795 6.813 5.217 1.69 2.42 2.54 5.27 2.54 8.54 0 5.526-1.712 9.482-5.133 11.866M677.344 340.61h81.87v-28.04H705.69v-39.457h53.525v-27.428H705.69v-27.12h53.525V190.63h-81.87"/></svg>